<?xml version="1.0" encoding="utf-8"?>
<!-- Generator: Adobe Illustrator 20.1.0, SVG Export Plug-In . SVG Version: 6.00 Build 0)  -->
<svg version="1.1" id="Layer_1" xmlns="http://www.w3.org/2000/svg" xmlns:xlink="http://www.w3.org/1999/xlink" x="0px" y="0px"
	 viewBox="0 0 120 120" style="enable-background:new 0 0 120 120;" xml:space="preserve">
<style type="text/css">
	.st0{fill:none;stroke:#23161C;stroke-width:0.25;stroke-miterlimit:10;}
	.st1{fill:url(#SVGID_1_);}
	.st2{fill:url(#SVGID_2_);}
	.st3{fill:url(#SVGID_3_);}
	.st4{fill:url(#SVGID_4_);}
	.st5{fill:none;}
	.st6{fill:url(#SVGID_5_);}
	.st7{fill:url(#SVGID_6_);}
	.st8{fill:url(#SVGID_7_);}
	.st9{fill:url(#SVGID_8_);}
	.st10{fill:url(#SVGID_9_);}
	.st11{fill:url(#SVGID_10_);}
	.st12{fill:url(#SVGID_11_);}
	.st13{fill:url(#SVGID_12_);}
	.st14{fill:url(#SVGID_13_);stroke:#23161C;stroke-width:0.25;stroke-miterlimit:10;}
	.st15{fill:url(#SVGID_14_);}
	.st16{fill:url(#SVGID_15_);}
	.st17{fill:url(#SVGID_16_);}
	.st18{fill:url(#SVGID_17_);}
	.st19{fill:url(#SVGID_18_);}
	.st20{fill:url(#SVGID_19_);stroke:#23161C;stroke-width:0.25;stroke-miterlimit:10;}
	.st21{fill:url(#SVGID_20_);stroke:#23161C;stroke-width:0.25;stroke-miterlimit:10;}
	.st22{fill:url(#SVGID_21_);stroke:#23161C;stroke-width:0.25;stroke-miterlimit:10;}
	.st23{fill:url(#SVGID_22_);}
	.st24{fill:url(#SVGID_23_);}
	.st25{fill:url(#SVGID_24_);}
	.st26{fill:url(#SVGID_25_);}
	.st27{fill:url(#SVGID_26_);}
	.st28{fill:url(#SVGID_27_);}
	.st29{fill:url(#SVGID_28_);}
	.st30{fill:url(#SVGID_29_);}
	.st31{fill:url(#SVGID_30_);}
	.st32{fill:url(#SVGID_31_);stroke:#23161C;stroke-width:0.25;stroke-miterlimit:10;}
	.st33{fill:url(#SVGID_32_);}
	.st34{fill:url(#SVGID_33_);}
	.st35{fill:url(#SVGID_34_);}
	.st36{fill:url(#SVGID_35_);}
	.st37{fill:url(#SVGID_36_);}
	.st38{fill:url(#SVGID_37_);}
	.st39{fill:url(#SVGID_38_);}
	.st40{fill:url(#SVGID_39_);}
	.st41{fill:url(#SVGID_40_);}
	.st42{fill:url(#SVGID_41_);}
	.st43{fill:url(#SVGID_42_);}
	.st44{fill:url(#SVGID_43_);}
	.st45{fill:url(#SVGID_44_);}
	.st46{fill:url(#SVGID_45_);}
	.st47{fill:url(#SVGID_46_);}
	.st48{fill:url(#SVGID_47_);}
	.st49{fill:url(#SVGID_48_);}
	.st50{fill:url(#SVGID_49_);}
	.st51{fill:url(#SVGID_50_);}
	.st52{fill:url(#SVGID_51_);}
	.st53{fill:url(#SVGID_52_);}
	.st54{fill:url(#SVGID_53_);}
	.st55{fill:url(#SVGID_54_);}
	.st56{fill:url(#SVGID_55_);}
	.st57{fill:url(#SVGID_56_);}
	.st58{fill:#FFFFFF;}
	.st59{fill:#7F3F98;}
</style>
<g>
	<polygon class="st0" points="24.7,62.8 24.7,62.8 24.7,62.8 	"/>
	
		<linearGradient id="SVGID_1_" gradientUnits="userSpaceOnUse" x1="9.4393" y1="43.6781" x2="23.0257" y2="43.6781" gradientTransform="matrix(0.999 -4.414441e-02 4.414441e-02 0.999 -2.4865 1.6881)">
		<stop  offset="0" style="stop-color:#432567"/>
		<stop  offset="1" style="stop-color:#553580"/>
	</linearGradient>
	<polygon class="st1" points="14.1,41.3 9,48.3 22.4,43.2 	"/>
	
		<linearGradient id="SVGID_2_" gradientUnits="userSpaceOnUse" x1="14.7775" y1="40.0317" x2="23.0257" y2="40.0317" gradientTransform="matrix(0.999 -4.414441e-02 4.414441e-02 0.999 -2.4865 1.6881)">
		<stop  offset="0" style="stop-color:#553580"/>
		<stop  offset="1" style="stop-color:#654297"/>
	</linearGradient>
	<polygon class="st2" points="19.8,38.2 14.1,41.3 22.4,43.2 	"/>
	
		<linearGradient id="SVGID_3_" gradientUnits="userSpaceOnUse" x1="15.6325" y1="69.0729" x2="25.7388" y2="69.0729" gradientTransform="matrix(0.999 -4.414441e-02 4.414441e-02 0.999 -2.4865 1.6881)">
		<stop  offset="0" style="stop-color:#553580"/>
		<stop  offset="1" style="stop-color:#654297"/>
	</linearGradient>
	<polygon class="st3" points="16.3,72.7 26.6,76.3 24.7,62.8 	"/>
	
		<linearGradient id="SVGID_4_" gradientUnits="userSpaceOnUse" x1="7.6827" y1="48.2701" x2="23.0257" y2="48.2701" gradientTransform="matrix(0.999 -4.414441e-02 4.414441e-02 0.999 -2.4865 1.6881)">
		<stop  offset="0" style="stop-color:#654297"/>
		<stop  offset="1" style="stop-color:#67459B"/>
	</linearGradient>
	<polygon class="st4" points="22.4,43.2 9,48.3 7.6,55.3 22.4,43.2 	"/>
	<polygon class="st5" points="38.9,44.5 64.8,46.7 39.1,54.2 39.1,54.2 64.9,46.7 38.9,44.5 	"/>
	<polygon class="st5" points="56.9,63.1 56.9,63 56.9,63 	"/>
	<polygon class="st5" points="24.7,62.8 24.7,62.8 24.7,62.8 	"/>
	<polygon class="st0" points="56.9,63 57.3,62.7 56.7,62.8 56.6,62.9 	"/>
	
		<linearGradient id="SVGID_5_" gradientUnits="userSpaceOnUse" x1="56.4648" y1="65.1965" x2="65.2043" y2="65.1965" gradientTransform="matrix(0.999 -4.414441e-02 4.414441e-02 0.999 -2.4865 1.6881)">
		<stop  offset="0" style="stop-color:#553580"/>
		<stop  offset="1" style="stop-color:#654297"/>
	</linearGradient>
	<polygon class="st6" points="57.1,63.1 62.9,65.9 65.5,62.1 56.9,63 	"/>
	
		<linearGradient id="SVGID_6_" gradientUnits="userSpaceOnUse" x1="56.656" y1="63.7628" x2="65.2043" y2="63.7628" gradientTransform="matrix(0.999 -4.414441e-02 4.414441e-02 0.999 -2.4865 1.6881)">
		<stop  offset="0" style="stop-color:#553580"/>
		<stop  offset="1" style="stop-color:#654297"/>
	</linearGradient>
	<polygon class="st7" points="56.9,63 57.3,62.7 56.9,63 	"/>
	<polygon class="st0" points="56.6,62.9 56.7,62.8 56.5,62.8 56.6,62.9 	"/>
	
		<linearGradient id="SVGID_7_" gradientUnits="userSpaceOnUse" x1="29.6224" y1="50.8301" x2="39.227" y2="50.8301" gradientTransform="matrix(0.999 -4.414441e-02 4.414441e-02 0.999 -2.4865 1.6881)">
		<stop  offset="0" style="stop-color:#432567"/>
		<stop  offset="1" style="stop-color:#553580"/>
	</linearGradient>
	<polygon class="st8" points="39.1,54.2 39.1,54.2 38.6,44.9 29.6,57 39,54.3 39.1,54.2 	"/>
	<path class="st0" d="M39.1,54.3"/>
	<polygon class="st0" points="56.6,62.9 56.9,63 56.6,62.9 	"/>
	<polyline class="st0" points="56.5,63 56.3,63.4 56.3,63.5 56.9,63.1 56.9,63 	"/>
	<polygon class="st0" points="56.3,63.4 56.3,63.6 56.3,63.5 	"/>
	<polygon class="st0" points="38.9,44.5 38.9,44.5 38.6,44.5 38.6,44.9 38.9,44.5 	"/>
	
		<linearGradient id="SVGID_8_" gradientUnits="userSpaceOnUse" x1="23.0245" y1="49.6271" x2="39.1633" y2="49.6271" gradientTransform="matrix(0.999 -4.414441e-02 4.414441e-02 0.999 -2.4865 1.6881)">
		<stop  offset="0" style="stop-color:#553580"/>
		<stop  offset="1" style="stop-color:#654297"/>
	</linearGradient>
	<polygon class="st9" points="38.6,44.9 38.6,44.5 22.4,43.2 29.6,57 	"/>
	
		<linearGradient id="SVGID_9_" gradientUnits="userSpaceOnUse" x1="39.4421" y1="43.2616" x2="65.3746" y2="43.2616" gradientTransform="matrix(0.999 -4.414441e-02 4.414441e-02 0.999 -2.4865 1.6881)">
		<stop  offset="0" style="stop-color:#654297"/>
		<stop  offset="1" style="stop-color:#67459B"/>
	</linearGradient>
	<polygon class="st10" points="64.9,46.7 55.2,37.8 38.9,44.5 	"/>
	
		<linearGradient id="SVGID_10_" gradientUnits="userSpaceOnUse" x1="56.656" y1="60.0972" x2="66.2741" y2="60.0972" gradientTransform="matrix(0.999 -4.414441e-02 4.414441e-02 0.999 -2.4865 1.6881)">
		<stop  offset="0" style="stop-color:#654297"/>
		<stop  offset="1" style="stop-color:#67459B"/>
	</linearGradient>
	<polygon class="st11" points="65.5,62.1 66.2,55 56.9,63 	"/>
	
		<linearGradient id="SVGID_11_" gradientUnits="userSpaceOnUse" x1="39.227" y1="55.9084" x2="65.3746" y2="55.9084" gradientTransform="matrix(0.999 -4.414441e-02 4.414441e-02 0.999 -2.4865 1.6881)">
		<stop  offset="0" style="stop-color:#654297"/>
		<stop  offset="1" style="stop-color:#67459B"/>
	</linearGradient>
	<polygon class="st12" points="39.1,54.3 56.5,62.8 56.9,63 64.9,46.7 39.1,54.2 	"/>
	
		<linearGradient id="SVGID_12_" gradientUnits="userSpaceOnUse" x1="56.5825" y1="55.9298" x2="66.2741" y2="55.9298" gradientTransform="matrix(0.999 -4.414441e-02 4.414441e-02 0.999 -2.4865 1.6881)">
		<stop  offset="0" style="stop-color:#553580"/>
		<stop  offset="1" style="stop-color:#654297"/>
	</linearGradient>
	<polyline class="st13" points="56.9,63.1 66.2,55 64.9,46.7 	"/>
	
		<linearGradient id="SVGID_13_" gradientUnits="userSpaceOnUse" x1="39.1645" y1="44.8111" x2="65.238" y2="44.8111" gradientTransform="matrix(0.999 -4.414441e-02 4.414441e-02 0.999 -2.4865 1.6881)">
		<stop  offset="0" style="stop-color:#432567"/>
		<stop  offset="1" style="stop-color:#553580"/>
	</linearGradient>
	<polygon class="st14" points="38.9,44.5 38.6,44.9 38.9,44.5 	"/>
	
		<linearGradient id="SVGID_14_" gradientUnits="userSpaceOnUse" x1="39.3091" y1="70.7217" x2="56.7331" y2="70.7217" gradientTransform="matrix(0.999 -4.414441e-02 4.414441e-02 0.999 -2.4865 1.6881)">
		<stop  offset="0" style="stop-color:#432567"/>
		<stop  offset="1" style="stop-color:#553580"/>
	</linearGradient>
	<polygon class="st15" points="56.4,63.5 56.9,63 39.7,66.5 40.3,77.4 56.3,63.6 	"/>
	
		<linearGradient id="SVGID_15_" gradientUnits="userSpaceOnUse" x1="39.2803" y1="63.727" x2="56.3466" y2="63.727" gradientTransform="matrix(0.999 -4.414441e-02 4.414441e-02 0.999 -2.4865 1.6881)">
		<stop  offset="0" style="stop-color:#432567"/>
		<stop  offset="1" style="stop-color:#553580"/>
	</linearGradient>
	<polygon class="st16" points="56.6,62.9 56.6,62.9 56.6,62.9 	"/>
	
		<linearGradient id="SVGID_16_" gradientUnits="userSpaceOnUse" x1="29.6224" y1="69.9164" x2="39.3825" y2="69.9164" gradientTransform="matrix(0.999 -4.414441e-02 4.414441e-02 0.999 -2.4865 1.6881)">
		<stop  offset="0" style="stop-color:#432567"/>
		<stop  offset="1" style="stop-color:#553580"/>
	</linearGradient>
	<polygon class="st17" points="39.5,62.2 40.3,77.4 39.5,62.2 	"/>
	
		<linearGradient id="SVGID_17_" gradientUnits="userSpaceOnUse" x1="39.2803" y1="69.9164" x2="56.3466" y2="69.9164" gradientTransform="matrix(0.999 -4.414441e-02 4.414441e-02 0.999 -2.4865 1.6881)">
		<stop  offset="0" style="stop-color:#432567"/>
		<stop  offset="1" style="stop-color:#553580"/>
	</linearGradient>
	<polygon class="st18" points="39.5,62.2 40.3,77.4 39.5,62.2 	"/>
	
		<linearGradient id="SVGID_18_" gradientUnits="userSpaceOnUse" x1="39.2277" y1="60.5026" x2="57.1107" y2="60.5026" gradientTransform="matrix(0.999 -4.414441e-02 4.414441e-02 0.999 -2.4865 1.6881)">
		<stop  offset="0" style="stop-color:#553580"/>
		<stop  offset="1" style="stop-color:#654297"/>
	</linearGradient>
	<polygon class="st19" points="56.9,63 39.1,54.3 39.7,66.5 	"/>
	
		<linearGradient id="SVGID_19_" gradientUnits="userSpaceOnUse" x1="56.2128" y1="63.6564" x2="56.2128" y2="63.6564" gradientTransform="matrix(0.999 -4.414441e-02 4.414441e-02 0.999 -2.4865 1.6881)">
		<stop  offset="0" style="stop-color:#654297"/>
		<stop  offset="1" style="stop-color:#67459B"/>
	</linearGradient>
	<path class="st20" d="M56.5,62.8"/>
	
		<linearGradient id="SVGID_20_" gradientUnits="userSpaceOnUse" x1="56.656" y1="63.8972" x2="56.656" y2="63.8972" gradientTransform="matrix(0.999 -4.414441e-02 4.414441e-02 0.999 -2.4865 1.6881)">
		<stop  offset="0" style="stop-color:#654297"/>
		<stop  offset="1" style="stop-color:#67459B"/>
	</linearGradient>
	<path class="st21" d="M56.9,63"/>
	
		<linearGradient id="SVGID_21_" gradientUnits="userSpaceOnUse" x1="56.3466" y1="63.729" x2="56.3466" y2="63.729" gradientTransform="matrix(0.999 -4.414441e-02 4.414441e-02 0.999 -2.4865 1.6881)">
		<stop  offset="0" style="stop-color:#654297"/>
		<stop  offset="1" style="stop-color:#67459B"/>
	</linearGradient>
	<path class="st22" d="M56.6,62.9"/>
	
		<linearGradient id="SVGID_22_" gradientUnits="userSpaceOnUse" x1="29.6224" y1="58.3561" x2="39.3825" y2="58.3561" gradientTransform="matrix(0.999 -4.414441e-02 4.414441e-02 0.999 -2.4865 1.6881)">
		<stop  offset="0" style="stop-color:#432567"/>
		<stop  offset="1" style="stop-color:#553580"/>
	</linearGradient>
	<polygon class="st23" points="39.1,54.3 39.5,62.2 39.5,62.2 	"/>
	
		<linearGradient id="SVGID_23_" gradientUnits="userSpaceOnUse" x1="39.2277" y1="58.3561" x2="56.656" y2="58.3561" gradientTransform="matrix(0.999 -4.414441e-02 4.414441e-02 0.999 -2.4865 1.6881)">
		<stop  offset="0" style="stop-color:#654297"/>
		<stop  offset="1" style="stop-color:#67459B"/>
	</linearGradient>
	<polygon class="st24" points="39.1,54.3 39.5,62.2 39.5,62.2 	"/>
	
		<linearGradient id="SVGID_24_" gradientUnits="userSpaceOnUse" x1="39.2803" y1="62.2865" x2="39.2803" y2="62.2865" gradientTransform="matrix(0.999 -4.414441e-02 4.414441e-02 0.999 -2.4865 1.6881)">
		<stop  offset="0" style="stop-color:#654297"/>
		<stop  offset="1" style="stop-color:#67459B"/>
	</linearGradient>
	<line class="st25" x1="39.5" y1="62.2" x2="39.5" y2="62.2"/>
	
		<linearGradient id="SVGID_25_" gradientUnits="userSpaceOnUse" x1="39.2803" y1="62.2865" x2="39.2803" y2="62.2865" gradientTransform="matrix(0.999 -4.414441e-02 4.414441e-02 0.999 -2.4865 1.6881)">
		<stop  offset="0" style="stop-color:#432567"/>
		<stop  offset="1" style="stop-color:#553580"/>
	</linearGradient>
	<polygon class="st26" points="39.5,62.2 39.5,62.2 39.5,62.2 	"/>
	
		<linearGradient id="SVGID_26_" gradientUnits="userSpaceOnUse" x1="39.2803" y1="62.2865" x2="39.2803" y2="62.2865" gradientTransform="matrix(0.999 -4.414441e-02 4.414441e-02 0.999 -2.4865 1.6881)">
		<stop  offset="0" style="stop-color:#432567"/>
		<stop  offset="1" style="stop-color:#553580"/>
	</linearGradient>
	<polygon class="st27" points="39.5,62.2 39.5,62.2 39.5,62.2 	"/>
	
		<linearGradient id="SVGID_27_" gradientUnits="userSpaceOnUse" x1="39.2803" y1="62.2865" x2="39.2803" y2="62.2865" gradientTransform="matrix(0.999 -4.414441e-02 4.414441e-02 0.999 -2.4865 1.6881)">
		<stop  offset="0" style="stop-color:#654297"/>
		<stop  offset="1" style="stop-color:#67459B"/>
	</linearGradient>
	<polygon class="st28" points="39.5,62.2 39.5,62.2 39.5,62.2 	"/>
	
		<linearGradient id="SVGID_28_" gradientUnits="userSpaceOnUse" x1="24.4157" y1="67.1126" x2="39.3825" y2="67.1126" gradientTransform="matrix(0.999 -4.414441e-02 4.414441e-02 0.999 -2.4865 1.6881)">
		<stop  offset="0" style="stop-color:#553580"/>
		<stop  offset="1" style="stop-color:#654297"/>
	</linearGradient>
	<polygon class="st29" points="24.7,62.8 40.3,77.4 29.6,57 	"/>
	
		<linearGradient id="SVGID_29_" gradientUnits="userSpaceOnUse" x1="39.3825" y1="70.7217" x2="56.9961" y2="70.7217" gradientTransform="matrix(0.999 -4.414441e-02 4.414441e-02 0.999 -2.4865 1.6881)">
		<stop  offset="0" style="stop-color:#553580"/>
		<stop  offset="1" style="stop-color:#654297"/>
	</linearGradient>
	<polyline class="st30" points="40.3,77.4 52.7,75.4 56.9,63 56.9,63.1 	"/>
	
		<linearGradient id="SVGID_30_" gradientUnits="userSpaceOnUse" x1="56.656" y1="63.8136" x2="65.2043" y2="63.8136" gradientTransform="matrix(0.999 -4.414441e-02 4.414441e-02 0.999 -2.4865 1.6881)">
		<stop  offset="0" style="stop-color:#553580"/>
		<stop  offset="1" style="stop-color:#654297"/>
	</linearGradient>
	<polygon class="st31" points="57.1,63.1 57.3,62.7 56.9,63 	"/>
	
		<linearGradient id="SVGID_31_" gradientUnits="userSpaceOnUse" x1="55.9856" y1="64.4268" x2="55.9856" y2="64.4268" gradientTransform="matrix(0.999 -4.414441e-02 4.414441e-02 0.999 -2.4865 1.6881)">
		<stop  offset="0" style="stop-color:#654297"/>
		<stop  offset="1" style="stop-color:#67459B"/>
	</linearGradient>
	<path class="st32" d="M56.3,63.6"/>
	
		<linearGradient id="SVGID_32_" gradientUnits="userSpaceOnUse" x1="56.5825" y1="63.9553" x2="56.5825" y2="63.9553" gradientTransform="matrix(0.999 -4.414441e-02 4.414441e-02 0.999 -2.4865 1.6881)">
		<stop  offset="0" style="stop-color:#432567"/>
		<stop  offset="1" style="stop-color:#553580"/>
	</linearGradient>
	<path class="st33" d="M56.9,63.1"/>
	
		<linearGradient id="SVGID_33_" gradientUnits="userSpaceOnUse" x1="39.3825" y1="77.5462" x2="39.3825" y2="77.5462" gradientTransform="matrix(0.999 -4.414441e-02 4.414441e-02 0.999 -2.4865 1.6881)">
		<stop  offset="0" style="stop-color:#432567"/>
		<stop  offset="1" style="stop-color:#553580"/>
	</linearGradient>
	<path class="st34" d="M40.3,77.4"/>
	
		<linearGradient id="SVGID_34_" gradientUnits="userSpaceOnUse" x1="24.4118" y1="69.9188" x2="39.3825" y2="69.9188" gradientTransform="matrix(0.999 -4.414441e-02 4.414441e-02 0.999 -2.4865 1.6881)">
		<stop  offset="0" style="stop-color:#432567"/>
		<stop  offset="1" style="stop-color:#553580"/>
	</linearGradient>
	<polygon class="st35" points="24.7,62.8 26.6,76.3 40.3,77.4 24.7,62.8 	"/>
	
		<linearGradient id="SVGID_35_" gradientUnits="userSpaceOnUse" x1="56.2199" y1="73.3286" x2="65.3409" y2="73.3286" gradientTransform="matrix(0.999 -4.414441e-02 4.414441e-02 0.999 -2.4865 1.6881)">
		<stop  offset="0" style="stop-color:#654297"/>
		<stop  offset="1" style="stop-color:#67459B"/>
	</linearGradient>
	<polygon class="st36" points="62.9,65.9 57,73.2 57,73.3 57,73.3 66.3,78.3 	"/>
	
		<linearGradient id="SVGID_36_" gradientUnits="userSpaceOnUse" x1="51.85" y1="70.2935" x2="56.656" y2="70.2935" gradientTransform="matrix(0.999 -4.414441e-02 4.414441e-02 0.999 -2.4865 1.6881)">
		<stop  offset="0" style="stop-color:#654297"/>
		<stop  offset="1" style="stop-color:#67459B"/>
	</linearGradient>
	<polygon class="st37" points="56.9,63.6 52.7,75.4 57,73.3 57,73.3 	"/>
	
		<linearGradient id="SVGID_37_" gradientUnits="userSpaceOnUse" x1="56.656" y1="63.8972" x2="56.656" y2="63.8972" gradientTransform="matrix(0.999 -4.414441e-02 4.414441e-02 0.999 -2.4865 1.6881)">
		<stop  offset="0" style="stop-color:#553580"/>
		<stop  offset="1" style="stop-color:#654297"/>
	</linearGradient>
	<polygon class="st38" points="56.9,63 56.9,63 56.9,63 	"/>
	
		<linearGradient id="SVGID_38_" gradientUnits="userSpaceOnUse" x1="39.3825" y1="69.9849" x2="56.9961" y2="69.9849" gradientTransform="matrix(0.999 -4.414441e-02 4.414441e-02 0.999 -2.4865 1.6881)">
		<stop  offset="0" style="stop-color:#654297"/>
		<stop  offset="1" style="stop-color:#67459B"/>
	</linearGradient>
	<polygon class="st39" points="56.9,63 56.9,63 52.7,75.4 56.9,63.6 	"/>
	
		<linearGradient id="SVGID_39_" gradientUnits="userSpaceOnUse" x1="51.85" y1="69.9849" x2="56.656" y2="69.9849" gradientTransform="matrix(0.999 -4.414441e-02 4.414441e-02 0.999 -2.4865 1.6881)">
		<stop  offset="0" style="stop-color:#553580"/>
		<stop  offset="1" style="stop-color:#654297"/>
	</linearGradient>
	<polygon class="st40" points="56.9,63 56.9,63 52.7,75.4 56.9,63.6 	"/>
	
		<linearGradient id="SVGID_40_" gradientUnits="userSpaceOnUse" x1="56.2199" y1="74.1278" x2="65.3409" y2="74.1278" gradientTransform="matrix(0.999 -4.414441e-02 4.414441e-02 0.999 -2.4865 1.6881)">
		<stop  offset="0" style="stop-color:#654297"/>
		<stop  offset="1" style="stop-color:#67459B"/>
	</linearGradient>
	<polygon class="st41" points="57,73.2 57,73.3 57,73.3 57,73.3 	"/>
	
		<linearGradient id="SVGID_41_" gradientUnits="userSpaceOnUse" x1="51.85" y1="74.1278" x2="56.656" y2="74.1278" gradientTransform="matrix(0.999 -4.414441e-02 4.414441e-02 0.999 -2.4865 1.6881)">
		<stop  offset="0" style="stop-color:#553580"/>
		<stop  offset="1" style="stop-color:#654297"/>
	</linearGradient>
	<polygon class="st42" points="57,73.2 57,73.3 57,73.3 57,73.3 	"/>
	
		<linearGradient id="SVGID_42_" gradientUnits="userSpaceOnUse" x1="56.656" y1="63.8972" x2="56.656" y2="63.8972" gradientTransform="matrix(0.999 -4.414441e-02 4.414441e-02 0.999 -2.4865 1.6881)">
		<stop  offset="0" style="stop-color:#432567"/>
		<stop  offset="1" style="stop-color:#553580"/>
	</linearGradient>
	<polygon class="st43" points="56.9,63 56.9,63 56.9,63 	"/>
	
		<linearGradient id="SVGID_43_" gradientUnits="userSpaceOnUse" x1="56.2199" y1="68.9742" x2="62.4707" y2="68.9742" gradientTransform="matrix(0.999 -4.414441e-02 4.414441e-02 0.999 -2.4865 1.6881)">
		<stop  offset="0" style="stop-color:#432567"/>
		<stop  offset="1" style="stop-color:#553580"/>
	</linearGradient>
	<polygon class="st44" points="56.9,63.6 57,73.2 62.9,65.9 56.9,63 	"/>
	
		<linearGradient id="SVGID_44_" gradientUnits="userSpaceOnUse" x1="56.3975" y1="64.5005" x2="56.3975" y2="64.5005" gradientTransform="matrix(0.999 -4.414441e-02 4.414441e-02 0.999 -2.4865 1.6881)">
		<stop  offset="0" style="stop-color:#432567"/>
		<stop  offset="1" style="stop-color:#553580"/>
	</linearGradient>
	<path class="st45" d="M56.7,63.6"/>
	
		<linearGradient id="SVGID_45_" gradientUnits="userSpaceOnUse" x1="51.85" y1="69.3277" x2="56.656" y2="69.3277" gradientTransform="matrix(0.999 -4.414441e-02 4.414441e-02 0.999 -2.4865 1.6881)">
		<stop  offset="0" style="stop-color:#553580"/>
		<stop  offset="1" style="stop-color:#654297"/>
	</linearGradient>
	<polygon class="st46" points="56.9,63.6 57,73.3 57,73.2 56.9,63.6 	"/>
	
		<linearGradient id="SVGID_46_" gradientUnits="userSpaceOnUse" x1="56.2199" y1="69.3277" x2="62.4707" y2="69.3277" gradientTransform="matrix(0.999 -4.414441e-02 4.414441e-02 0.999 -2.4865 1.6881)">
		<stop  offset="0" style="stop-color:#432567"/>
		<stop  offset="1" style="stop-color:#553580"/>
	</linearGradient>
	<polygon class="st47" points="56.9,63.6 57,73.3 57,73.2 56.9,63.6 	"/>
	
		<linearGradient id="SVGID_47_" gradientUnits="userSpaceOnUse" x1="52.8446" y1="64.5075" x2="56.7101" y2="64.5075" gradientTransform="matrix(0.999 -4.414441e-02 4.414441e-02 0.999 -2.4865 1.6881)">
		<stop  offset="0" style="stop-color:#654297"/>
		<stop  offset="1" style="stop-color:#67459B"/>
	</linearGradient>
	<line class="st48" x1="56.9" y1="63.6" x2="56.9" y2="63.6"/>
	
		<linearGradient id="SVGID_48_" gradientUnits="userSpaceOnUse" x1="23.0257" y1="39.6467" x2="39.162" y2="39.6467" gradientTransform="matrix(0.999 -4.414441e-02 4.414441e-02 0.999 -2.4865 1.6881)">
		<stop  offset="0" style="stop-color:#432567"/>
		<stop  offset="1" style="stop-color:#553580"/>
	</linearGradient>
	<polygon class="st49" points="38.1,34.6 22.4,43.2 38.6,44.5 	"/>
	
		<linearGradient id="SVGID_49_" gradientUnits="userSpaceOnUse" x1="39.4421" y1="40.3295" x2="56.0469" y2="40.3295" gradientTransform="matrix(0.999 -4.414441e-02 4.414441e-02 0.999 -2.4865 1.6881)">
		<stop  offset="0" style="stop-color:#553580"/>
		<stop  offset="1" style="stop-color:#654297"/>
	</linearGradient>
	<polygon class="st50" points="55.2,37.8 45.5,35.6 38.9,44.5 	"/>
	
		<linearGradient id="SVGID_50_" gradientUnits="userSpaceOnUse" x1="20.6462" y1="38.6315" x2="39.0956" y2="38.6315" gradientTransform="matrix(0.999 -4.414441e-02 4.414441e-02 0.999 -2.4865 1.6881)">
		<stop  offset="0" style="stop-color:#553580"/>
		<stop  offset="1" style="stop-color:#654297"/>
	</linearGradient>
	<polygon class="st51" points="28.8,36.2 19.8,38.2 22.4,43.2 22.4,43.2 38.1,34.6 	"/>
	
		<linearGradient id="SVGID_51_" gradientUnits="userSpaceOnUse" x1="39.0956" y1="39.6643" x2="46.4762" y2="39.6643" gradientTransform="matrix(0.999 -4.414441e-02 4.414441e-02 0.999 -2.4865 1.6881)">
		<stop  offset="0" style="stop-color:#432567"/>
		<stop  offset="1" style="stop-color:#553580"/>
	</linearGradient>
	<polygon class="st52" points="38.9,44.5 45.5,35.6 38.1,34.6 38.6,44.5 	"/>
	
		<linearGradient id="SVGID_52_" gradientUnits="userSpaceOnUse" x1="7.6827" y1="49.6271" x2="29.6224" y2="49.6271" gradientTransform="matrix(0.999 -4.414441e-02 4.414441e-02 0.999 -2.4865 1.6881)">
		<stop  offset="0" style="stop-color:#553580"/>
		<stop  offset="1" style="stop-color:#654297"/>
	</linearGradient>
	<polygon class="st53" points="29.6,57 22.4,43.2 7.6,55.3 25,56.6 	"/>
	
		<linearGradient id="SVGID_53_" gradientUnits="userSpaceOnUse" x1="8.1689" y1="64.2188" x2="29.6224" y2="64.2188" gradientTransform="matrix(0.999 -4.414441e-02 4.414441e-02 0.999 -2.4865 1.6881)">
		<stop  offset="0" style="stop-color:#654297"/>
		<stop  offset="1" style="stop-color:#67459B"/>
	</linearGradient>
	<polygon class="st54" points="24.7,62.8 29.6,57 8.4,63.2 16.3,72.7 24.7,62.8 24.7,62.8 	"/>
	
		<linearGradient id="SVGID_54_" gradientUnits="userSpaceOnUse" x1="7.6827" y1="57.9546" x2="29.6224" y2="57.9546" gradientTransform="matrix(0.999 -4.414441e-02 4.414441e-02 0.999 -2.4865 1.6881)">
		<stop  offset="0" style="stop-color:#432567"/>
		<stop  offset="1" style="stop-color:#553580"/>
	</linearGradient>
	<polygon class="st55" points="25,56.6 7.6,55.3 8.4,63.2 29.6,57 	"/>
	
		<linearGradient id="SVGID_55_" gradientUnits="userSpaceOnUse" x1="29.6224" y1="65.9501" x2="39.3825" y2="65.9501" gradientTransform="matrix(0.999 -4.414441e-02 4.414441e-02 0.999 -2.4865 1.6881)">
		<stop  offset="0" style="stop-color:#654297"/>
		<stop  offset="1" style="stop-color:#67459B"/>
	</linearGradient>
	<polygon class="st56" points="39.1,54.3 39,54.3 29.6,57 40.3,77.4 39.5,62.2 	"/>
	
		<linearGradient id="SVGID_56_" gradientUnits="userSpaceOnUse" x1="39.1647" y1="49.4812" x2="65.2381" y2="49.4812" gradientTransform="matrix(0.999 -4.414441e-02 4.414441e-02 0.999 -2.4865 1.6881)">
		<stop  offset="0" style="stop-color:#432567"/>
		<stop  offset="1" style="stop-color:#553580"/>
	</linearGradient>
	<polygon class="st57" points="64.8,46.7 38.9,44.5 38.6,44.9 39.1,54.2 	"/>
</g>
<g>
	<path class="st58" d="M23.1,45.8h2.7l5,21.4h-3.2l-0.9-4.6h-4.4l-0.9,4.6h-3.2L23.1,45.8z M24.4,51.9L24.4,51.9l-1.6,7.7H26
		L24.4,51.9z"/>
	<path class="st58" d="M33.9,45.8H39c3.8,0,5.7,2.1,5.7,6.3c0,1.2-0.2,2.3-0.6,3.2c-0.4,0.9-1.1,1.6-2.2,2.1l3.5,9.8H42L39,58h-1.9
		v9.1h-3.2V45.8z M37.1,55.3h1.8c0.6,0,1-0.1,1.4-0.2s0.6-0.4,0.8-0.6c0.2-0.3,0.3-0.6,0.4-1c0.1-0.4,0.1-0.9,0.1-1.4s0-1-0.1-1.4
		c-0.1-0.4-0.2-0.8-0.4-1c-0.2-0.3-0.5-0.5-0.8-0.6c-0.4-0.1-0.8-0.2-1.4-0.2h-1.7V55.3z"/>
	<path class="st58" d="M50.4,48.6h-3.7v-2.9h10.6v2.9h-3.7v18.5h-3.2V48.6z"/>
</g>
<g>
	<path class="st59" d="M68.9,49.8h1.8v1.8h-1.8V49.8z M68.9,53.5h1.8v9.1h-1.8V53.5z"/>
	<path class="st59" d="M75.1,60c0,0.3,0.1,0.5,0.2,0.7s0.4,0.2,0.7,0.2c0.3,0,0.6-0.1,0.7-0.3c0.1-0.2,0.2-0.4,0.2-0.6h1.8
		c0,0.4-0.1,0.7-0.2,1.1c-0.1,0.3-0.3,0.6-0.5,0.9c-0.2,0.3-0.5,0.5-0.9,0.6c-0.3,0.1-0.7,0.2-1.1,0.2c-0.6,0-1-0.1-1.5-0.4
		s-0.7-0.6-0.9-1c-0.1-0.2-0.2-0.5-0.3-0.8c0-0.3-0.1-0.7-0.1-1v-3c0-0.4,0-0.7,0.1-1c0-0.3,0.1-0.6,0.3-0.8c0.2-0.4,0.5-0.7,0.9-1
		s0.9-0.4,1.5-0.4c0.4,0,0.8,0.1,1.1,0.2c0.3,0.1,0.6,0.3,0.9,0.6c0.2,0.3,0.4,0.6,0.5,0.9c0.1,0.4,0.2,0.8,0.2,1.2h-1.8
		c0-0.4-0.1-0.6-0.2-0.8s-0.4-0.3-0.7-0.3s-0.5,0.1-0.7,0.3s-0.2,0.4-0.2,0.8V60z"/>
	<path class="st59" d="M86.2,62.7h-1.8v-0.9h0c-0.2,0.3-0.4,0.5-0.7,0.7c-0.3,0.2-0.6,0.3-1,0.3c-0.2,0-0.5,0-0.7-0.1
		c-0.2-0.1-0.4-0.2-0.6-0.4c-0.2-0.2-0.3-0.4-0.4-0.7c-0.1-0.3-0.2-0.6-0.2-1v-7h1.8v6.3c0,0.3,0.1,0.6,0.2,0.8
		c0.2,0.2,0.4,0.3,0.7,0.3c0.3,0,0.6-0.1,0.7-0.3c0.1-0.2,0.2-0.5,0.2-0.9v-6.1h1.8V62.7z"/>
	<path class="st59" d="M88.5,49.8h1.8v10.2c0,0.3,0.1,0.6,0.2,0.7s0.4,0.2,0.7,0.2v1.7c-0.4,0-0.8,0-1.1-0.1
		c-0.3-0.1-0.6-0.2-0.9-0.4c-0.2-0.2-0.4-0.4-0.5-0.8c-0.1-0.3-0.2-0.8-0.2-1.3V49.8z"/>
	<path class="st59" d="M96.4,61.7L96.4,61.7c-0.3,0.3-0.5,0.6-0.8,0.8s-0.6,0.3-1,0.3c-0.2,0-0.4,0-0.7-0.1
		c-0.2-0.1-0.4-0.2-0.6-0.4s-0.4-0.4-0.5-0.7s-0.2-0.7-0.2-1.2c0-0.5,0-1,0.1-1.4c0.1-0.4,0.2-0.7,0.5-1c0.2-0.3,0.5-0.4,0.9-0.6
		c0.4-0.1,0.8-0.2,1.4-0.2c0.1,0,0.3,0,0.4,0c0.1,0,0.3,0,0.5,0v-1c0-0.3-0.1-0.6-0.2-0.8s-0.4-0.3-0.7-0.3c-0.2,0-0.5,0.1-0.7,0.2
		c-0.2,0.2-0.3,0.4-0.4,0.7h-1.8c0.1-0.8,0.3-1.5,0.8-2c0.2-0.2,0.5-0.4,0.9-0.6c0.3-0.1,0.7-0.2,1.1-0.2c0.4,0,0.7,0.1,1.1,0.2
		c0.3,0.1,0.6,0.3,0.9,0.5c0.2,0.2,0.4,0.5,0.6,0.9c0.1,0.4,0.2,0.8,0.2,1.3v6.4h-1.8V61.7z M96.4,58.7c-0.2,0-0.4-0.1-0.5-0.1
		c-0.4,0-0.7,0.1-1,0.3c-0.3,0.2-0.4,0.5-0.4,1c0,0.3,0.1,0.6,0.3,0.8c0.2,0.2,0.4,0.3,0.7,0.3c0.3,0,0.6-0.1,0.7-0.3
		c0.2-0.2,0.3-0.5,0.3-0.9V58.7z"/>
	<path class="st59" d="M100.4,50.8h1.8v2.8h1.1V55h-1.1V60c0,0.2,0,0.4,0.1,0.5s0.1,0.2,0.2,0.3c0.1,0.1,0.2,0.1,0.4,0.1
		c0.1,0,0.3,0,0.5,0v1.7h-0.8c-0.4,0-0.8-0.1-1.1-0.2c-0.3-0.1-0.5-0.3-0.7-0.5s-0.3-0.4-0.4-0.7c-0.1-0.3-0.1-0.5-0.1-0.7V55h-0.9
		v-1.4h0.9V50.8z"/>
	<path class="st59" d="M106.7,58.8V60c0,0.3,0.1,0.5,0.2,0.7c0.2,0.2,0.4,0.2,0.7,0.2c0.3,0,0.6-0.1,0.7-0.3
		c0.1-0.2,0.2-0.4,0.2-0.6h1.8c0,0.4-0.1,0.7-0.2,1.1c-0.1,0.3-0.3,0.6-0.5,0.9c-0.2,0.3-0.5,0.5-0.9,0.6c-0.3,0.1-0.7,0.2-1.1,0.2
		c-0.6,0-1-0.1-1.5-0.4s-0.7-0.6-0.9-1c-0.1-0.2-0.2-0.5-0.3-0.8c0-0.3-0.1-0.7-0.1-1v-3c0-0.4,0-0.7,0.1-1c0-0.3,0.1-0.6,0.3-0.8
		c0.2-0.4,0.5-0.7,0.9-1s0.9-0.4,1.5-0.4c0.4,0,0.8,0.1,1.1,0.2c0.3,0.1,0.6,0.3,0.9,0.6c0.2,0.3,0.4,0.6,0.5,0.9s0.2,0.7,0.2,1.1
		v2.5H106.7z M106.7,57.4h1.8v-1c0-0.3-0.1-0.6-0.2-0.8s-0.4-0.3-0.7-0.3s-0.5,0.1-0.7,0.3c-0.2,0.2-0.2,0.4-0.2,0.8V57.4z"/>
</g>
</svg>
